<svg width="1000" height="1000" viewBox="0 0 1000 1000" version="1.1" id="svg5" sodipodi:docname="壷.svg" inkscape:version="1.4.2 (f4327f4, 2025-05-13)" xmlns:inkscape="http://www.inkscape.org/namespaces/inkscape" xmlns:sodipodi="http://sodipodi.sourceforge.net/DTD/sodipodi-0.dtd" xmlns="http://www.w3.org/2000/svg" xmlns:svg="http://www.w3.org/2000/svg"><path d="M379.170 100.959 C 376.422 102.392,372.756 104.825,371.024 106.365 C 363.264 113.265,363.333 111.942,363.333 252.621 L 363.333 385.349 354.855 405.591 C 343.360 433.034,322.773 474.739,308.251 500.000 C 264.280 576.486,214.575 632.004,139.634 688.333 C 128.049 697.042,117.323 706.273,115.799 708.848 C 104.270 728.330,125.981 753.561,148.475 746.821 C 159.032 743.658,206.559 707.130,238.333 677.757 C 280.008 639.232,325.168 582.387,354.061 532.083 C 358.404 524.521,362.268 518.333,362.646 518.333 C 363.024 518.333,363.308 574.396,363.278 642.917 C 363.216 781.241,364.115 771.633,353.006 752.784 C 338.131 727.546,297.494 738.164,300.416 766.526 C 301.028 772.459,305.724 781.986,321.435 809.163 C 332.562 828.411,341.667 844.723,341.667 845.413 C 341.667 846.102,284.451 846.667,214.520 846.667 L 87.373 846.667 80.034 850.417 C 69.897 855.596,66.190 861.282,65.377 872.894 C 64.816 880.913,65.349 883.438,68.602 888.180 C 70.746 891.304,74.617 895.429,77.206 897.347 L 81.911 900.833 500.000 900.833 L 918.089 900.833 922.794 897.347 C 925.383 895.429,929.254 891.304,931.398 888.180 C 934.651 883.438,935.184 880.913,934.623 872.894 C 933.810 861.282,930.103 855.596,919.966 850.417 L 912.627 846.667 774.647 846.667 L 636.667 846.667 636.667 657.500 C 636.667 532.675,637.233 468.333,638.331 468.333 C 639.246 468.333,692.684 504.948,757.081 549.699 C 821.478 594.449,876.212 632.400,878.712 634.032 C 889.676 641.192,903.545 640.481,913.317 632.258 C 926.557 621.118,926.797 604.966,913.899 593.173 C 911.296 590.794,848.792 547.005,775.000 495.865 C 701.208 444.726,639.896 401.717,638.750 400.290 C 637.120 398.261,636.667 367.148,636.667 257.428 L 636.667 117.160 632.917 111.650 C 627.291 103.384,621.172 99.623,611.900 98.732 C 601.235 97.708,590.832 102.492,585.000 111.103 L 580.833 117.255 580.402 481.961 L 579.970 846.667 499.985 846.667 L 420.000 846.667 420.000 620.947 L 420.000 395.227 425.186 381.364 C 436.337 351.552,446.667 319.028,446.667 313.730 C 446.667 303.222,438.662 293.105,427.241 289.180 L 420.833 286.978 420.000 202.239 C 419.196 120.531,419.044 117.291,415.740 111.668 C 408.906 100.033,391.001 94.790,379.170 100.959 " stroke="none" fill-rule="evenodd" fill="#000000"></path></svg>