<svg width="1000" height="1000" viewBox="0 0 1000 1000" version="1.1" id="svg5" sodipodi:docname="皿.svg" inkscape:version="1.4.2 (f4327f4, 2025-05-13)" xmlns:inkscape="http://www.inkscape.org/namespaces/inkscape" xmlns:sodipodi="http://sodipodi.sourceforge.net/DTD/sodipodi-0.dtd" xmlns="http://www.w3.org/2000/svg" xmlns:svg="http://www.w3.org/2000/svg"><path d="M879.919 68.633 C 876.667 69.480,872.000 71.821,869.550 73.836 C 867.099 75.851,857.088 92.125,847.303 110.000 C 837.519 127.875,823.247 152.488,815.588 164.696 C 746.573 274.707,669.649 332.465,525.999 382.132 L 500.833 390.833 331.667 391.667 L 162.500 392.500 156.667 396.135 C 153.458 398.134,149.333 402.259,147.500 405.302 C 144.212 410.759,144.161 414.191,143.724 660.000 C 143.424 828.188,143.845 911.896,145.019 917.566 C 147.867 931.324,158.333 940.385,171.379 940.385 C 189.297 940.385,199.750 928.191,199.927 907.083 L 200.000 898.333 500.000 898.333 L 800.000 898.333 800.000 907.554 C 800.000 927.938,810.851 940.385,828.621 940.385 C 841.502 940.385,852.045 931.385,854.932 917.925 C 857.056 908.022,857.234 426.190,855.118 415.236 C 853.271 405.677,848.929 399.996,839.966 395.417 L 832.627 391.667 740.897 391.647 L 649.167 391.627 669.954 379.919 C 770.300 323.401,829.841 258.311,900.044 128.384 C 911.863 106.510,913.974 101.417,913.974 94.784 C 913.974 77.491,896.740 64.257,879.919 68.633 M103.633 89.470 C 90.423 95.979,84.679 113.003,91.322 125.956 C 93.378 129.965,127.889 165.211,180.420 216.951 C 254.725 290.138,267.088 301.652,273.107 303.272 C 296.051 309.451,315.597 283.226,302.908 263.288 C 297.599 254.945,133.613 92.678,127.166 89.389 C 120.396 85.934,110.741 85.967,103.633 89.470 M380.299 89.470 C 367.089 95.979,361.345 113.003,367.988 125.956 C 370.045 129.965,404.555 165.211,457.087 216.951 C 531.392 290.138,543.755 301.652,549.773 303.272 C 572.713 309.449,592.272 283.214,579.575 263.298 C 574.236 254.924,410.249 92.635,403.833 89.376 C 397.054 85.933,387.399 85.971,380.299 89.470 M471.667 645.000 L 471.667 843.333 335.833 843.333 L 200.000 843.333 200.000 645.000 L 200.000 446.667 335.833 446.667 L 471.667 446.667 471.667 645.000 M800.000 645.000 L 800.000 843.333 664.167 843.333 L 528.333 843.333 528.333 645.000 L 528.333 446.667 664.167 446.667 L 800.000 446.667 800.000 645.000 " stroke="none" fill-rule="evenodd" fill="#000000"></path></svg>